<?xml version="1.0" encoding="utf-8" ?>
<svg baseProfile="full" height="1024" version="1.1" width="1024" xmlns="http://www.w3.org/2000/svg" xmlns:ev="http://www.w3.org/2001/xml-events" xmlns:xlink="http://www.w3.org/1999/xlink"><defs /><circle cx="200" cy="0" r="5" /><circle cx="200" cy="0" r="5" /><circle cx="200" cy="0" r="5" /><line stroke="rgb(0%,0%,0%)" x1="0" x2="1024" y1="300" y2="300" /><circle cx="200" cy="0" r="1" /><circle cx="200" cy="0" r="1" /><circle cx="200" cy="0" r="1" /><circle cx="200" cy="0" r="1" /><circle cx="200" cy="0" r="1" /><circle cx="200" cy="0" r="1" /><circle cx="200" cy="0" r="1" /><circle cx="200" cy="0" r="1" /><circle cx="200" cy="0" r="1" /><circle cx="200" cy="0" r="1" /><circle cx="200" cy="0" r="1" /><circle cx="200" cy="0" r="1" /><circle cx="200" cy="0" r="1" /><circle cx="200" cy="0" r="1" /><circle cx="200" cy="0" r="1" /><circle cx="200" cy="0" r="1" /><circle cx="200" cy="0" r="1" /><circle cx="200" cy="0" r="1" /><circle cx="200" cy="0" r="1" /><circle cx="200" cy="0" r="1" /></svg>